<?xml version="1.0" encoding="UTF-8" standalone="no"?>
<!DOCTYPE svg PUBLIC "-//W3C//DTD SVG 1.1//EN"
 "http://www.w3.org/Graphics/SVG/1.1/DTD/svg11.dtd">
<!-- Generated by graphviz version 10.0.1 (20240210.2158)
 -->
<!-- Title: Tree Pages: 1 -->
<svg width="3673pt" height="491pt"
 viewBox="0.00 0.00 3673.00 491.00" xmlns="http://www.w3.org/2000/svg" xmlns:xlink="http://www.w3.org/1999/xlink">
<g id="graph0" class="graph" transform="scale(1 1) rotate(0) translate(4 487)">
<title>Tree</title>
<polygon fill="white" stroke="none" points="-4,4 -4,-487 3669,-487 3669,4 -4,4"/>
<!-- 0 -->
<g id="node1" class="node">
<title>0</title>
<polygon fill="#f6d3ba" stroke="black" points="1943,-483 1830.25,-483 1830.25,-430 1943,-430 1943,-483"/>
<text text-anchor="middle" x="1886.62" y="-465.7" font-family="Helvetica,sans-Serif" font-size="14.00">bmi &lt;= 0.005</text>
<text text-anchor="middle" x="1886.62" y="-450.7" font-family="Helvetica,sans-Serif" font-size="14.00">samples = 331</text>
<text text-anchor="middle" x="1886.62" y="-435.7" font-family="Helvetica,sans-Serif" font-size="14.00">value = 154.344</text>
</g>
<!-- 1 -->
<g id="node2" class="node">
<title>1</title>
<polygon fill="#f9e2d2" stroke="black" points="1396,-394 1283.25,-394 1283.25,-341 1396,-341 1396,-394"/>
<text text-anchor="middle" x="1339.62" y="-376.7" font-family="Helvetica,sans-Serif" font-size="14.00">s5 &lt;= 0.006</text>
<text text-anchor="middle" x="1339.62" y="-361.7" font-family="Helvetica,sans-Serif" font-size="14.00">samples = 197</text>
<text text-anchor="middle" x="1339.62" y="-346.7" font-family="Helvetica,sans-Serif" font-size="14.00">value = 119.787</text>
</g>
<!-- 0&#45;&gt;1 -->
<g id="edge1" class="edge">
<title>0&#45;&gt;1</title>
<path fill="none" stroke="black" d="M1829.89,-446.48C1728.4,-430.33 1516.22,-396.59 1407.31,-379.26"/>
<polygon fill="black" stroke="black" points="1408.06,-375.84 1397.64,-377.73 1406.96,-382.75 1408.06,-375.84"/>
<text text-anchor="middle" x="1410.82" y="-391.92" font-family="Helvetica,sans-Serif" font-size="14.00">True</text>
</g>
<!-- 30 -->
<g id="node31" class="node">
<title>30</title>
<polygon fill="#f1bc96" stroke="black" points="2193,-394 2080.25,-394 2080.25,-341 2193,-341 2193,-394"/>
<text text-anchor="middle" x="2136.62" y="-376.7" font-family="Helvetica,sans-Serif" font-size="14.00">bmi &lt;= 0.073</text>
<text text-anchor="middle" x="2136.62" y="-361.7" font-family="Helvetica,sans-Serif" font-size="14.00">samples = 134</text>
<text text-anchor="middle" x="2136.62" y="-346.7" font-family="Helvetica,sans-Serif" font-size="14.00">value = 205.149</text>
</g>
<!-- 0&#45;&gt;30 -->
<g id="edge30" class="edge">
<title>0&#45;&gt;30</title>
<path fill="none" stroke="black" d="M1943.35,-435.76C1980.75,-422.74 2029.91,-405.64 2069.29,-391.93"/>
<polygon fill="black" stroke="black" points="2070.4,-395.25 2078.69,-388.66 2068.1,-388.64 2070.4,-395.25"/>
<text text-anchor="middle" x="2069.24" y="-404.87" font-family="Helvetica,sans-Serif" font-size="14.00">False</text>
</g>
<!-- 2 -->
<g id="node3" class="node">
<title>2</title>
<polygon fill="#fbeade" stroke="black" points="775,-305 662.25,-305 662.25,-252 775,-252 775,-305"/>
<text text-anchor="middle" x="718.62" y="-287.7" font-family="Helvetica,sans-Serif" font-size="14.00">s5 &lt;= &#45;0.043</text>
<text text-anchor="middle" x="718.62" y="-272.7" font-family="Helvetica,sans-Serif" font-size="14.00">samples = 140</text>
<text text-anchor="middle" x="718.62" y="-257.7" font-family="Helvetica,sans-Serif" font-size="14.00">value = 101.514</text>
</g>
<!-- 1&#45;&gt;2 -->
<g id="edge2" class="edge">
<title>1&#45;&gt;2</title>
<path fill="none" stroke="black" d="M1282.87,-358.55C1168.33,-342.5 909.95,-306.3 786.62,-289.03"/>
<polygon fill="black" stroke="black" points="787.36,-285.6 776.97,-287.67 786.39,-292.53 787.36,-285.6"/>
</g>
<!-- 17 -->
<g id="node18" class="node">
<title>17</title>
<polygon fill="#f5ceb3" stroke="black" points="1396,-305 1283.25,-305 1283.25,-252 1396,-252 1396,-305"/>
<text text-anchor="middle" x="1339.62" y="-287.7" font-family="Helvetica,sans-Serif" font-size="14.00">s4 &lt;= 0.09</text>
<text text-anchor="middle" x="1339.62" y="-272.7" font-family="Helvetica,sans-Serif" font-size="14.00">samples = 57</text>
<text text-anchor="middle" x="1339.62" y="-257.7" font-family="Helvetica,sans-Serif" font-size="14.00">value = 164.667</text>
</g>
<!-- 1&#45;&gt;17 -->
<g id="edge17" class="edge">
<title>1&#45;&gt;17</title>
<path fill="none" stroke="black" d="M1339.62,-340.87C1339.62,-333.24 1339.62,-324.72 1339.62,-316.51"/>
<polygon fill="black" stroke="black" points="1343.13,-316.76 1339.63,-306.76 1336.13,-316.76 1343.13,-316.76"/>
</g>
<!-- 3 -->
<g id="node4" class="node">
<title>3</title>
<polygon fill="#fdf4ed" stroke="black" points="409.25,-216 304,-216 304,-163 409.25,-163 409.25,-216"/>
<text text-anchor="middle" x="356.62" y="-198.7" font-family="Helvetica,sans-Serif" font-size="14.00">s1 &lt;= &#45;0.039</text>
<text text-anchor="middle" x="356.62" y="-183.7" font-family="Helvetica,sans-Serif" font-size="14.00">samples = 45</text>
<text text-anchor="middle" x="356.62" y="-168.7" font-family="Helvetica,sans-Serif" font-size="14.00">value = 80.289</text>
</g>
<!-- 2&#45;&gt;3 -->
<g id="edge3" class="edge">
<title>2&#45;&gt;3</title>
<path fill="none" stroke="black" d="M662.06,-263.91C596.61,-248.17 489.06,-222.33 420.61,-205.88"/>
<polygon fill="black" stroke="black" points="421.57,-202.51 411.03,-203.57 419.93,-209.31 421.57,-202.51"/>
</g>
<!-- 10 -->
<g id="node11" class="node">
<title>10</title>
<polygon fill="#fae6d7" stroke="black" points="774.62,-216 662.62,-216 662.62,-163 774.62,-163 774.62,-216"/>
<text text-anchor="middle" x="718.62" y="-198.7" font-family="Helvetica,sans-Serif" font-size="14.00">s1 &lt;= &#45;0.052</text>
<text text-anchor="middle" x="718.62" y="-183.7" font-family="Helvetica,sans-Serif" font-size="14.00">samples = 95</text>
<text text-anchor="middle" x="718.62" y="-168.7" font-family="Helvetica,sans-Serif" font-size="14.00">value = 111.568</text>
</g>
<!-- 2&#45;&gt;10 -->
<g id="edge10" class="edge">
<title>2&#45;&gt;10</title>
<path fill="none" stroke="black" d="M718.62,-251.87C718.62,-244.24 718.62,-235.72 718.62,-227.51"/>
<polygon fill="black" stroke="black" points="722.13,-227.76 718.63,-217.76 715.13,-227.76 722.13,-227.76"/>
</g>
<!-- 4 -->
<g id="node5" class="node">
<title>4</title>
<polygon fill="#fbeee4" stroke="black" points="228.25,-127 123,-127 123,-74 228.25,-74 228.25,-127"/>
<text text-anchor="middle" x="175.62" y="-109.7" font-family="Helvetica,sans-Serif" font-size="14.00">s1 &lt;= &#45;0.046</text>
<text text-anchor="middle" x="175.62" y="-94.7" font-family="Helvetica,sans-Serif" font-size="14.00">samples = 26</text>
<text text-anchor="middle" x="175.62" y="-79.7" font-family="Helvetica,sans-Serif" font-size="14.00">value = 93.846</text>
</g>
<!-- 3&#45;&gt;4 -->
<g id="edge4" class="edge">
<title>3&#45;&gt;4</title>
<path fill="none" stroke="black" d="M303.79,-163.1C283.43,-153.32 259.98,-142.05 238.75,-131.84"/>
<polygon fill="black" stroke="black" points="240.42,-128.76 229.89,-127.59 237.39,-135.07 240.42,-128.76"/>
</g>
<!-- 7 -->
<g id="node8" class="node">
<title>7</title>
<polygon fill="#fefcfa" stroke="black" points="409.25,-127 304,-127 304,-74 409.25,-74 409.25,-127"/>
<text text-anchor="middle" x="356.62" y="-109.7" font-family="Helvetica,sans-Serif" font-size="14.00">age &lt;= 0.033</text>
<text text-anchor="middle" x="356.62" y="-94.7" font-family="Helvetica,sans-Serif" font-size="14.00">samples = 19</text>
<text text-anchor="middle" x="356.62" y="-79.7" font-family="Helvetica,sans-Serif" font-size="14.00">value = 61.737</text>
</g>
<!-- 3&#45;&gt;7 -->
<g id="edge7" class="edge">
<title>3&#45;&gt;7</title>
<path fill="none" stroke="black" d="M356.62,-162.87C356.62,-155.24 356.62,-146.72 356.62,-138.51"/>
<polygon fill="black" stroke="black" points="360.13,-138.76 356.63,-128.76 353.13,-138.76 360.13,-138.76"/>
</g>
<!-- 5 -->
<g id="node6" class="node">
<title>5</title>
<polygon fill="#fdf3ec" stroke="black" points="105.25,-38 0,-38 0,0 105.25,0 105.25,-38"/>
<text text-anchor="middle" x="52.62" y="-20.7" font-family="Helvetica,sans-Serif" font-size="14.00">samples = 22</text>
<text text-anchor="middle" x="52.62" y="-5.7" font-family="Helvetica,sans-Serif" font-size="14.00">value = 82.045</text>
</g>
<!-- 4&#45;&gt;5 -->
<g id="edge5" class="edge">
<title>4&#45;&gt;5</title>
<path fill="none" stroke="black" d="M135.69,-73.69C121.21,-64.33 104.91,-53.8 90.61,-44.55"/>
<polygon fill="black" stroke="black" points="92.64,-41.7 82.34,-39.21 88.84,-47.58 92.64,-41.7"/>
</g>
<!-- 6 -->
<g id="node7" class="node">
<title>6</title>
<polygon fill="#f6d1b7" stroke="black" points="228.25,-38 123,-38 123,0 228.25,0 228.25,-38"/>
<text text-anchor="middle" x="175.62" y="-20.7" font-family="Helvetica,sans-Serif" font-size="14.00">samples = 4</text>
<text text-anchor="middle" x="175.62" y="-5.7" font-family="Helvetica,sans-Serif" font-size="14.00">value = 158.75</text>
</g>
<!-- 4&#45;&gt;6 -->
<g id="edge6" class="edge">
<title>4&#45;&gt;6</title>
<path fill="none" stroke="black" d="M175.62,-73.91C175.62,-66.25 175.62,-57.79 175.62,-49.88"/>
<polygon fill="black" stroke="black" points="179.13,-50 175.63,-40 172.13,-50 179.13,-50"/>
</g>
<!-- 8 -->
<g id="node9" class="node">
<title>8</title>
<polygon fill="#ffffff" stroke="black" points="351.25,-38 246,-38 246,0 351.25,0 351.25,-38"/>
<text text-anchor="middle" x="298.62" y="-20.7" font-family="Helvetica,sans-Serif" font-size="14.00">samples = 14</text>
<text text-anchor="middle" x="298.62" y="-5.7" font-family="Helvetica,sans-Serif" font-size="14.00">value = 54.714</text>
</g>
<!-- 7&#45;&gt;8 -->
<g id="edge8" class="edge">
<title>7&#45;&gt;8</title>
<path fill="none" stroke="black" d="M337.95,-73.91C331.84,-65.53 325.03,-56.19 318.81,-47.67"/>
<polygon fill="black" stroke="black" points="321.73,-45.73 313,-39.71 316.07,-49.85 321.73,-45.73"/>
</g>
<!-- 9 -->
<g id="node10" class="node">
<title>9</title>
<polygon fill="#fdf3ec" stroke="black" points="459.75,-38 369.5,-38 369.5,0 459.75,0 459.75,-38"/>
<text text-anchor="middle" x="414.62" y="-20.7" font-family="Helvetica,sans-Serif" font-size="14.00">samples = 5</text>
<text text-anchor="middle" x="414.62" y="-5.7" font-family="Helvetica,sans-Serif" font-size="14.00">value = 81.4</text>
</g>
<!-- 7&#45;&gt;9 -->
<g id="edge9" class="edge">
<title>7&#45;&gt;9</title>
<path fill="none" stroke="black" d="M375.3,-73.91C381.41,-65.53 388.22,-56.19 394.44,-47.67"/>
<polygon fill="black" stroke="black" points="397.18,-49.85 400.25,-39.71 391.52,-45.73 397.18,-49.85"/>
</g>
<!-- 11 -->
<g id="node12" class="node">
<title>11</title>
<polygon fill="#f6d3bb" stroke="black" points="710,-127 597.25,-127 597.25,-74 710,-74 710,-127"/>
<text text-anchor="middle" x="653.62" y="-109.7" font-family="Helvetica,sans-Serif" font-size="14.00">s5 &lt;= &#45;0.002</text>
<text text-anchor="middle" x="653.62" y="-94.7" font-family="Helvetica,sans-Serif" font-size="14.00">samples = 13</text>
<text text-anchor="middle" x="653.62" y="-79.7" font-family="Helvetica,sans-Serif" font-size="14.00">value = 153.231</text>
</g>
<!-- 10&#45;&gt;11 -->
<g id="edge11" class="edge">
<title>10&#45;&gt;11</title>
<path fill="none" stroke="black" d="M699.47,-162.87C693.25,-154.53 686.23,-145.14 679.59,-136.26"/>
<polygon fill="black" stroke="black" points="682.56,-134.38 673.77,-128.46 676.95,-138.57 682.56,-134.38"/>
</g>
<!-- 14 -->
<g id="node15" class="node">
<title>14</title>
<polygon fill="#fae9dc" stroke="black" points="841,-127 728.25,-127 728.25,-74 841,-74 841,-127"/>
<text text-anchor="middle" x="784.62" y="-109.7" font-family="Helvetica,sans-Serif" font-size="14.00">s2 &lt;= 0.113</text>
<text text-anchor="middle" x="784.62" y="-94.7" font-family="Helvetica,sans-Serif" font-size="14.00">samples = 82</text>
<text text-anchor="middle" x="784.62" y="-79.7" font-family="Helvetica,sans-Serif" font-size="14.00">value = 104.963</text>
</g>
<!-- 10&#45;&gt;14 -->
<g id="edge14" class="edge">
<title>10&#45;&gt;14</title>
<path fill="none" stroke="black" d="M738.07,-162.87C744.39,-154.53 751.52,-145.14 758.26,-136.26"/>
<polygon fill="black" stroke="black" points="760.92,-138.54 764.18,-128.46 755.34,-134.31 760.92,-138.54"/>
</g>
<!-- 12 -->
<g id="node13" class="node">
<title>12</title>
<polygon fill="#f7d9c3" stroke="black" points="591,-38 478.25,-38 478.25,0 591,0 591,-38"/>
<text text-anchor="middle" x="534.62" y="-20.7" font-family="Helvetica,sans-Serif" font-size="14.00">samples = 11</text>
<text text-anchor="middle" x="534.62" y="-5.7" font-family="Helvetica,sans-Serif" font-size="14.00">value = 141.364</text>
</g>
<!-- 11&#45;&gt;12 -->
<g id="edge12" class="edge">
<title>11&#45;&gt;12</title>
<path fill="none" stroke="black" d="M614.99,-73.69C600.98,-64.33 585.21,-53.8 571.37,-44.55"/>
<polygon fill="black" stroke="black" points="573.66,-41.87 563.41,-39.23 569.78,-47.69 573.66,-41.87"/>
</g>
<!-- 13 -->
<g id="node14" class="node">
<title>13</title>
<polygon fill="#f0b78d" stroke="black" points="706.5,-38 608.75,-38 608.75,0 706.5,0 706.5,-38"/>
<text text-anchor="middle" x="657.62" y="-20.7" font-family="Helvetica,sans-Serif" font-size="14.00">samples = 2</text>
<text text-anchor="middle" x="657.62" y="-5.7" font-family="Helvetica,sans-Serif" font-size="14.00">value = 218.5</text>
</g>
<!-- 11&#45;&gt;13 -->
<g id="edge13" class="edge">
<title>11&#45;&gt;13</title>
<path fill="none" stroke="black" d="M654.91,-73.91C655.3,-66.25 655.72,-57.79 656.12,-49.88"/>
<polygon fill="black" stroke="black" points="659.61,-50.16 656.62,-40 652.62,-49.81 659.61,-50.16"/>
</g>
<!-- 15 -->
<g id="node16" class="node">
<title>15</title>
<polygon fill="#fbeadd" stroke="black" points="837,-38 724.25,-38 724.25,0 837,0 837,-38"/>
<text text-anchor="middle" x="780.62" y="-20.7" font-family="Helvetica,sans-Serif" font-size="14.00">samples = 81</text>
<text text-anchor="middle" x="780.62" y="-5.7" font-family="Helvetica,sans-Serif" font-size="14.00">value = 103.136</text>
</g>
<!-- 14&#45;&gt;15 -->
<g id="edge15" class="edge">
<title>14&#45;&gt;15</title>
<path fill="none" stroke="black" d="M783.34,-73.91C782.95,-66.25 782.53,-57.79 782.13,-49.88"/>
<polygon fill="black" stroke="black" points="785.63,-49.81 781.63,-40 778.64,-50.16 785.63,-49.81"/>
</g>
<!-- 16 -->
<g id="node17" class="node">
<title>16</title>
<polygon fill="#eda775" stroke="black" points="952.5,-38 854.75,-38 854.75,0 952.5,0 952.5,-38"/>
<text text-anchor="middle" x="903.62" y="-20.7" font-family="Helvetica,sans-Serif" font-size="14.00">samples = 1</text>
<text text-anchor="middle" x="903.62" y="-5.7" font-family="Helvetica,sans-Serif" font-size="14.00">value = 253.0</text>
</g>
<!-- 14&#45;&gt;16 -->
<g id="edge16" class="edge">
<title>14&#45;&gt;16</title>
<path fill="none" stroke="black" d="M823.26,-73.69C837.27,-64.33 853.04,-53.8 866.88,-44.55"/>
<polygon fill="black" stroke="black" points="868.47,-47.69 874.84,-39.23 864.59,-41.87 868.47,-47.69"/>
</g>
<!-- 18 -->
<g id="node19" class="node">
<title>18</title>
<polygon fill="#f5d1b6" stroke="black" points="1331,-216 1218.25,-216 1218.25,-163 1331,-163 1331,-216"/>
<text text-anchor="middle" x="1274.62" y="-198.7" font-family="Helvetica,sans-Serif" font-size="14.00">age &lt;= &#45;0.0</text>
<text text-anchor="middle" x="1274.62" y="-183.7" font-family="Helvetica,sans-Serif" font-size="14.00">samples = 54</text>
<text text-anchor="middle" x="1274.62" y="-168.7" font-family="Helvetica,sans-Serif" font-size="14.00">value = 159.574</text>
</g>
<!-- 17&#45;&gt;18 -->
<g id="edge18" class="edge">
<title>17&#45;&gt;18</title>
<path fill="none" stroke="black" d="M1320.47,-251.87C1314.25,-243.53 1307.23,-234.14 1300.59,-225.26"/>
<polygon fill="black" stroke="black" points="1303.56,-223.38 1294.77,-217.46 1297.95,-227.57 1303.56,-223.38"/>
</g>
<!-- 25 -->
<g id="node26" class="node">
<title>25</title>
<polygon fill="#eda673" stroke="black" points="1465,-216 1352.25,-216 1352.25,-163 1465,-163 1465,-216"/>
<text text-anchor="middle" x="1408.62" y="-198.7" font-family="Helvetica,sans-Serif" font-size="14.00">s3 &lt;= &#45;0.06</text>
<text text-anchor="middle" x="1408.62" y="-183.7" font-family="Helvetica,sans-Serif" font-size="14.00">samples = 3</text>
<text text-anchor="middle" x="1408.62" y="-168.7" font-family="Helvetica,sans-Serif" font-size="14.00">value = 256.333</text>
</g>
<!-- 17&#45;&gt;25 -->
<g id="edge25" class="edge">
<title>17&#45;&gt;25</title>
<path fill="none" stroke="black" d="M1359.95,-251.87C1366.56,-243.53 1374.01,-234.14 1381.06,-225.26"/>
<polygon fill="black" stroke="black" points="1383.79,-227.45 1387.26,-217.44 1378.31,-223.1 1383.79,-227.45"/>
</g>
<!-- 19 -->
<g id="node20" class="node">
<title>19</title>
<polygon fill="#f8dcc7" stroke="black" points="1195.25,-127 1090,-127 1090,-74 1195.25,-74 1195.25,-127"/>
<text text-anchor="middle" x="1142.62" y="-109.7" font-family="Helvetica,sans-Serif" font-size="14.00">age &lt;= &#45;0.055</text>
<text text-anchor="middle" x="1142.62" y="-94.7" font-family="Helvetica,sans-Serif" font-size="14.00">samples = 21</text>
<text text-anchor="middle" x="1142.62" y="-79.7" font-family="Helvetica,sans-Serif" font-size="14.00">value = 134.81</text>
</g>
<!-- 18&#45;&gt;19 -->
<g id="edge19" class="edge">
<title>18&#45;&gt;19</title>
<path fill="none" stroke="black" d="M1235.38,-162.63C1221.54,-153.51 1205.81,-143.14 1191.29,-133.57"/>
<polygon fill="black" stroke="black" points="1193.49,-130.83 1183.21,-128.25 1189.64,-136.68 1193.49,-130.83"/>
</g>
<!-- 22 -->
<g id="node23" class="node">
<title>22</title>
<polygon fill="#f4caab" stroke="black" points="1331,-127 1218.25,-127 1218.25,-74 1331,-74 1331,-127"/>
<text text-anchor="middle" x="1274.62" y="-109.7" font-family="Helvetica,sans-Serif" font-size="14.00">s1 &lt;= &#45;0.009</text>
<text text-anchor="middle" x="1274.62" y="-94.7" font-family="Helvetica,sans-Serif" font-size="14.00">samples = 33</text>
<text text-anchor="middle" x="1274.62" y="-79.7" font-family="Helvetica,sans-Serif" font-size="14.00">value = 175.333</text>
</g>
<!-- 18&#45;&gt;22 -->
<g id="edge22" class="edge">
<title>18&#45;&gt;22</title>
<path fill="none" stroke="black" d="M1274.62,-162.87C1274.62,-155.24 1274.62,-146.72 1274.62,-138.51"/>
<polygon fill="black" stroke="black" points="1278.13,-138.76 1274.63,-128.76 1271.13,-138.76 1278.13,-138.76"/>
</g>
<!-- 20 -->
<g id="node21" class="node">
<title>20</title>
<polygon fill="#f2c19e" stroke="black" points="1068.5,-38 970.75,-38 970.75,0 1068.5,0 1068.5,-38"/>
<text text-anchor="middle" x="1019.62" y="-20.7" font-family="Helvetica,sans-Serif" font-size="14.00">samples = 3</text>
<text text-anchor="middle" x="1019.62" y="-5.7" font-family="Helvetica,sans-Serif" font-size="14.00">value = 195.0</text>
</g>
<!-- 19&#45;&gt;20 -->
<g id="edge20" class="edge">
<title>19&#45;&gt;20</title>
<path fill="none" stroke="black" d="M1102.69,-73.69C1088.21,-64.33 1071.91,-53.8 1057.61,-44.55"/>
<polygon fill="black" stroke="black" points="1059.64,-41.7 1049.34,-39.21 1055.84,-47.58 1059.64,-41.7"/>
</g>
<!-- 21 -->
<g id="node22" class="node">
<title>21</title>
<polygon fill="#f9e0ce" stroke="black" points="1199,-38 1086.25,-38 1086.25,0 1199,0 1199,-38"/>
<text text-anchor="middle" x="1142.62" y="-20.7" font-family="Helvetica,sans-Serif" font-size="14.00">samples = 18</text>
<text text-anchor="middle" x="1142.62" y="-5.7" font-family="Helvetica,sans-Serif" font-size="14.00">value = 124.778</text>
</g>
<!-- 19&#45;&gt;21 -->
<g id="edge21" class="edge">
<title>19&#45;&gt;21</title>
<path fill="none" stroke="black" d="M1142.62,-73.91C1142.62,-66.25 1142.62,-57.79 1142.62,-49.88"/>
<polygon fill="black" stroke="black" points="1146.13,-50 1142.63,-40 1139.13,-50 1146.13,-50"/>
</g>
<!-- 23 -->
<g id="node24" class="node">
<title>23</title>
<polygon fill="#eead7e" stroke="black" points="1330,-38 1217.25,-38 1217.25,0 1330,0 1330,-38"/>
<text text-anchor="middle" x="1273.62" y="-20.7" font-family="Helvetica,sans-Serif" font-size="14.00">samples = 7</text>
<text text-anchor="middle" x="1273.62" y="-5.7" font-family="Helvetica,sans-Serif" font-size="14.00">value = 240.429</text>
</g>
<!-- 22&#45;&gt;23 -->
<g id="edge23" class="edge">
<title>22&#45;&gt;23</title>
<path fill="none" stroke="black" d="M1274.3,-73.91C1274.21,-66.25 1274.1,-57.79 1274,-49.88"/>
<polygon fill="black" stroke="black" points="1277.5,-49.96 1273.88,-40 1270.5,-50.04 1277.5,-49.96"/>
</g>
<!-- 24 -->
<g id="node25" class="node">
<title>24</title>
<polygon fill="#f6d1b7" stroke="black" points="1461,-38 1348.25,-38 1348.25,0 1461,0 1461,-38"/>
<text text-anchor="middle" x="1404.62" y="-20.7" font-family="Helvetica,sans-Serif" font-size="14.00">samples = 26</text>
<text text-anchor="middle" x="1404.62" y="-5.7" font-family="Helvetica,sans-Serif" font-size="14.00">value = 157.808</text>
</g>
<!-- 22&#45;&gt;24 -->
<g id="edge24" class="edge">
<title>22&#45;&gt;24</title>
<path fill="none" stroke="black" d="M1316.83,-73.69C1332.28,-64.24 1349.69,-53.59 1364.92,-44.28"/>
<polygon fill="black" stroke="black" points="1366.56,-47.38 1373.27,-39.18 1362.91,-41.41 1366.56,-47.38"/>
</g>
<!-- 26 -->
<g id="node27" class="node">
<title>26</title>
<polygon fill="#e9965a" stroke="black" points="1457.5,-119.5 1359.75,-119.5 1359.75,-81.5 1457.5,-81.5 1457.5,-119.5"/>
<text text-anchor="middle" x="1408.62" y="-102.2" font-family="Helvetica,sans-Serif" font-size="14.00">samples = 1</text>
<text text-anchor="middle" x="1408.62" y="-87.2" font-family="Helvetica,sans-Serif" font-size="14.00">value = 292.0</text>
</g>
<!-- 25&#45;&gt;26 -->
<g id="edge26" class="edge">
<title>25&#45;&gt;26</title>
<path fill="none" stroke="black" d="M1408.62,-162.87C1408.62,-152.92 1408.62,-141.47 1408.62,-131.18"/>
<polygon fill="black" stroke="black" points="1412.13,-131.29 1408.63,-121.29 1405.13,-131.29 1412.13,-131.29"/>
</g>
<!-- 27 -->
<g id="node28" class="node">
<title>27</title>
<polygon fill="#eeae7f" stroke="black" points="1578,-127 1477.25,-127 1477.25,-74 1578,-74 1578,-127"/>
<text text-anchor="middle" x="1527.62" y="-109.7" font-family="Helvetica,sans-Serif" font-size="14.00">bmi &lt;= &#45;0.003</text>
<text text-anchor="middle" x="1527.62" y="-94.7" font-family="Helvetica,sans-Serif" font-size="14.00">samples = 2</text>
<text text-anchor="middle" x="1527.62" y="-79.7" font-family="Helvetica,sans-Serif" font-size="14.00">value = 238.5</text>
</g>
<!-- 25&#45;&gt;27 -->
<g id="edge27" class="edge">
<title>25&#45;&gt;27</title>
<path fill="none" stroke="black" d="M1444.01,-162.63C1456.25,-153.68 1470.12,-143.54 1483.01,-134.12"/>
<polygon fill="black" stroke="black" points="1484.95,-137.04 1490.95,-128.31 1480.81,-131.39 1484.95,-137.04"/>
</g>
<!-- 28 -->
<g id="node29" class="node">
<title>28</title>
<polygon fill="#edaa79" stroke="black" points="1576.5,-38 1478.75,-38 1478.75,0 1576.5,0 1576.5,-38"/>
<text text-anchor="middle" x="1527.62" y="-20.7" font-family="Helvetica,sans-Serif" font-size="14.00">samples = 1</text>
<text text-anchor="middle" x="1527.62" y="-5.7" font-family="Helvetica,sans-Serif" font-size="14.00">value = 248.0</text>
</g>
<!-- 27&#45;&gt;28 -->
<g id="edge28" class="edge">
<title>27&#45;&gt;28</title>
<path fill="none" stroke="black" d="M1527.62,-73.91C1527.62,-66.25 1527.62,-57.79 1527.62,-49.88"/>
<polygon fill="black" stroke="black" points="1531.13,-50 1527.63,-40 1524.13,-50 1531.13,-50"/>
</g>
<!-- 29 -->
<g id="node30" class="node">
<title>29</title>
<polygon fill="#efb286" stroke="black" points="1692.5,-38 1594.75,-38 1594.75,0 1692.5,0 1692.5,-38"/>
<text text-anchor="middle" x="1643.62" y="-20.7" font-family="Helvetica,sans-Serif" font-size="14.00">samples = 1</text>
<text text-anchor="middle" x="1643.62" y="-5.7" font-family="Helvetica,sans-Serif" font-size="14.00">value = 229.0</text>
</g>
<!-- 27&#45;&gt;29 -->
<g id="edge29" class="edge">
<title>27&#45;&gt;29</title>
<path fill="none" stroke="black" d="M1565.29,-73.69C1578.81,-64.42 1594.02,-54 1607.41,-44.82"/>
<polygon fill="black" stroke="black" points="1609.28,-47.78 1615.55,-39.24 1605.32,-42.01 1609.28,-47.78"/>
</g>
<!-- 31 -->
<g id="node32" class="node">
<title>31</title>
<polygon fill="#f3c3a1" stroke="black" points="2193,-305 2080.25,-305 2080.25,-252 2193,-252 2193,-305"/>
<text text-anchor="middle" x="2136.62" y="-287.7" font-family="Helvetica,sans-Serif" font-size="14.00">bp &lt;= 0.017</text>
<text text-anchor="middle" x="2136.62" y="-272.7" font-family="Helvetica,sans-Serif" font-size="14.00">samples = 109</text>
<text text-anchor="middle" x="2136.62" y="-257.7" font-family="Helvetica,sans-Serif" font-size="14.00">value = 190.018</text>
</g>
<!-- 30&#45;&gt;31 -->
<g id="edge31" class="edge">
<title>30&#45;&gt;31</title>
<path fill="none" stroke="black" d="M2136.62,-340.87C2136.62,-333.24 2136.62,-324.72 2136.62,-316.51"/>
<polygon fill="black" stroke="black" points="2140.13,-316.76 2136.63,-306.76 2133.13,-316.76 2140.13,-316.76"/>
</g>
<!-- 46 -->
<g id="node47" class="node">
<title>46</title>
<polygon fill="#eb9f69" stroke="black" points="2976.25,-305 2871,-305 2871,-252 2976.25,-252 2976.25,-305"/>
<text text-anchor="middle" x="2923.62" y="-287.7" font-family="Helvetica,sans-Serif" font-size="14.00">s2 &lt;= 0.022</text>
<text text-anchor="middle" x="2923.62" y="-272.7" font-family="Helvetica,sans-Serif" font-size="14.00">samples = 25</text>
<text text-anchor="middle" x="2923.62" y="-257.7" font-family="Helvetica,sans-Serif" font-size="14.00">value = 271.12</text>
</g>
<!-- 30&#45;&gt;46 -->
<g id="edge46" class="edge">
<title>30&#45;&gt;46</title>
<path fill="none" stroke="black" d="M2193.22,-360.24C2335.78,-344.48 2708.91,-303.24 2859.36,-286.6"/>
<polygon fill="black" stroke="black" points="2859.6,-290.1 2869.16,-285.52 2858.83,-283.14 2859.6,-290.1"/>
</g>
<!-- 32 -->
<g id="node33" class="node">
<title>32</title>
<polygon fill="#f5cdb1" stroke="black" points="2132,-216 2019.25,-216 2019.25,-163 2132,-163 2132,-216"/>
<text text-anchor="middle" x="2075.62" y="-198.7" font-family="Helvetica,sans-Serif" font-size="14.00">s6 &lt;= 0.113</text>
<text text-anchor="middle" x="2075.62" y="-183.7" font-family="Helvetica,sans-Serif" font-size="14.00">samples = 57</text>
<text text-anchor="middle" x="2075.62" y="-168.7" font-family="Helvetica,sans-Serif" font-size="14.00">value = 167.193</text>
</g>
<!-- 31&#45;&gt;32 -->
<g id="edge32" class="edge">
<title>31&#45;&gt;32</title>
<path fill="none" stroke="black" d="M2118.65,-251.87C2112.87,-243.62 2106.36,-234.34 2100.19,-225.54"/>
<polygon fill="black" stroke="black" points="2103.16,-223.67 2094.55,-217.49 2097.42,-227.69 2103.16,-223.67"/>
</g>
<!-- 39 -->
<g id="node40" class="node">
<title>39</title>
<polygon fill="#f0b890" stroke="black" points="2366,-216 2253.25,-216 2253.25,-163 2366,-163 2366,-216"/>
<text text-anchor="middle" x="2309.62" y="-198.7" font-family="Helvetica,sans-Serif" font-size="14.00">s6 &lt;= 0.034</text>
<text text-anchor="middle" x="2309.62" y="-183.7" font-family="Helvetica,sans-Serif" font-size="14.00">samples = 52</text>
<text text-anchor="middle" x="2309.62" y="-168.7" font-family="Helvetica,sans-Serif" font-size="14.00">value = 215.038</text>
</g>
<!-- 31&#45;&gt;39 -->
<g id="edge39" class="edge">
<title>31&#45;&gt;39</title>
<path fill="none" stroke="black" d="M2188.06,-251.63C2206.89,-242.16 2228.39,-231.35 2248.02,-221.48"/>
<polygon fill="black" stroke="black" points="2249.37,-224.72 2256.73,-217.1 2246.23,-218.46 2249.37,-224.72"/>
</g>
<!-- 33 -->
<g id="node34" class="node">
<title>33</title>
<polygon fill="#f5d0b5" stroke="black" points="1947,-127 1834.25,-127 1834.25,-74 1947,-74 1947,-127"/>
<text text-anchor="middle" x="1890.62" y="-109.7" font-family="Helvetica,sans-Serif" font-size="14.00">bmi &lt;= 0.032</text>
<text text-anchor="middle" x="1890.62" y="-94.7" font-family="Helvetica,sans-Serif" font-size="14.00">samples = 54</text>
<text text-anchor="middle" x="1890.62" y="-79.7" font-family="Helvetica,sans-Serif" font-size="14.00">value = 160.685</text>
</g>
<!-- 32&#45;&gt;33 -->
<g id="edge33" class="edge">
<title>32&#45;&gt;33</title>
<path fill="none" stroke="black" d="M2020.37,-162.51C2000.06,-152.96 1976.87,-142.06 1955.77,-132.13"/>
<polygon fill="black" stroke="black" points="1957.5,-129.08 1946.97,-128 1954.53,-135.42 1957.5,-129.08"/>
</g>
<!-- 36 -->
<g id="node37" class="node">
<title>36</title>
<polygon fill="#ea995f" stroke="black" points="2132,-127 2019.25,-127 2019.25,-74 2132,-74 2132,-127"/>
<text text-anchor="middle" x="2075.62" y="-109.7" font-family="Helvetica,sans-Serif" font-size="14.00">age &lt;= &#45;0.013</text>
<text text-anchor="middle" x="2075.62" y="-94.7" font-family="Helvetica,sans-Serif" font-size="14.00">samples = 3</text>
<text text-anchor="middle" x="2075.62" y="-79.7" font-family="Helvetica,sans-Serif" font-size="14.00">value = 284.333</text>
</g>
<!-- 32&#45;&gt;36 -->
<g id="edge36" class="edge">
<title>32&#45;&gt;36</title>
<path fill="none" stroke="black" d="M2075.62,-162.87C2075.62,-155.24 2075.62,-146.72 2075.62,-138.51"/>
<polygon fill="black" stroke="black" points="2079.13,-138.76 2075.63,-128.76 2072.13,-138.76 2079.13,-138.76"/>
</g>
<!-- 34 -->
<g id="node35" class="node">
<title>34</title>
<polygon fill="#f3c5a4" stroke="black" points="1816.25,-38 1711,-38 1711,0 1816.25,0 1816.25,-38"/>
<text text-anchor="middle" x="1763.62" y="-20.7" font-family="Helvetica,sans-Serif" font-size="14.00">samples = 25</text>
<text text-anchor="middle" x="1763.62" y="-5.7" font-family="Helvetica,sans-Serif" font-size="14.00">value = 185.76</text>
</g>
<!-- 33&#45;&gt;34 -->
<g id="edge34" class="edge">
<title>33&#45;&gt;34</title>
<path fill="none" stroke="black" d="M1849.39,-73.69C1834.3,-64.24 1817.29,-53.59 1802.42,-44.28"/>
<polygon fill="black" stroke="black" points="1804.61,-41.53 1794.28,-39.19 1800.9,-47.46 1804.61,-41.53"/>
</g>
<!-- 35 -->
<g id="node36" class="node">
<title>35</title>
<polygon fill="#f7dac4" stroke="black" points="1947,-38 1834.25,-38 1834.25,0 1947,0 1947,-38"/>
<text text-anchor="middle" x="1890.62" y="-20.7" font-family="Helvetica,sans-Serif" font-size="14.00">samples = 29</text>
<text text-anchor="middle" x="1890.62" y="-5.7" font-family="Helvetica,sans-Serif" font-size="14.00">value = 139.069</text>
</g>
<!-- 33&#45;&gt;35 -->
<g id="edge35" class="edge">
<title>33&#45;&gt;35</title>
<path fill="none" stroke="black" d="M1890.62,-73.91C1890.62,-66.25 1890.62,-57.79 1890.62,-49.88"/>
<polygon fill="black" stroke="black" points="1894.13,-50 1890.63,-40 1887.13,-50 1894.13,-50"/>
</g>
<!-- 37 -->
<g id="node38" class="node">
<title>37</title>
<polygon fill="#e78b49" stroke="black" points="2062.5,-38 1964.75,-38 1964.75,0 2062.5,0 2062.5,-38"/>
<text text-anchor="middle" x="2013.62" y="-20.7" font-family="Helvetica,sans-Serif" font-size="14.00">samples = 1</text>
<text text-anchor="middle" x="2013.62" y="-5.7" font-family="Helvetica,sans-Serif" font-size="14.00">value = 317.0</text>
</g>
<!-- 36&#45;&gt;37 -->
<g id="edge37" class="edge">
<title>36&#45;&gt;37</title>
<path fill="none" stroke="black" d="M2055.67,-73.91C2049.06,-65.44 2041.69,-55.99 2034.99,-47.39"/>
<polygon fill="black" stroke="black" points="2037.88,-45.41 2028.97,-39.68 2032.36,-49.72 2037.88,-45.41"/>
</g>
<!-- 38 -->
<g id="node39" class="node">
<title>38</title>
<polygon fill="#eca16b" stroke="black" points="2178.5,-38 2080.75,-38 2080.75,0 2178.5,0 2178.5,-38"/>
<text text-anchor="middle" x="2129.62" y="-20.7" font-family="Helvetica,sans-Serif" font-size="14.00">samples = 2</text>
<text text-anchor="middle" x="2129.62" y="-5.7" font-family="Helvetica,sans-Serif" font-size="14.00">value = 268.0</text>
</g>
<!-- 36&#45;&gt;38 -->
<g id="edge38" class="edge">
<title>36&#45;&gt;38</title>
<path fill="none" stroke="black" d="M2093.01,-73.91C2098.64,-65.62 2104.91,-56.39 2110.65,-47.94"/>
<polygon fill="black" stroke="black" points="2113.49,-49.98 2116.22,-39.74 2107.7,-46.04 2113.49,-49.98"/>
</g>
<!-- 40 -->
<g id="node41" class="node">
<title>40</title>
<polygon fill="#f2bf9b" stroke="black" points="2366,-127 2253.25,-127 2253.25,-74 2366,-74 2366,-127"/>
<text text-anchor="middle" x="2309.62" y="-109.7" font-family="Helvetica,sans-Serif" font-size="14.00">bmi &lt;= 0.009</text>
<text text-anchor="middle" x="2309.62" y="-94.7" font-family="Helvetica,sans-Serif" font-size="14.00">samples = 34</text>
<text text-anchor="middle" x="2309.62" y="-79.7" font-family="Helvetica,sans-Serif" font-size="14.00">value = 199.294</text>
</g>
<!-- 39&#45;&gt;40 -->
<g id="edge40" class="edge">
<title>39&#45;&gt;40</title>
<path fill="none" stroke="black" d="M2309.62,-162.87C2309.62,-155.24 2309.62,-146.72 2309.62,-138.51"/>
<polygon fill="black" stroke="black" points="2313.13,-138.76 2309.63,-128.76 2306.13,-138.76 2313.13,-138.76"/>
</g>
<!-- 43 -->
<g id="node44" class="node">
<title>43</title>
<polygon fill="#eeab7b" stroke="black" points="2556,-127 2443.25,-127 2443.25,-74 2556,-74 2556,-127"/>
<text text-anchor="middle" x="2499.62" y="-109.7" font-family="Helvetica,sans-Serif" font-size="14.00">s5 &lt;= 0.0</text>
<text text-anchor="middle" x="2499.62" y="-94.7" font-family="Helvetica,sans-Serif" font-size="14.00">samples = 18</text>
<text text-anchor="middle" x="2499.62" y="-79.7" font-family="Helvetica,sans-Serif" font-size="14.00">value = 244.778</text>
</g>
<!-- 39&#45;&gt;43 -->
<g id="edge43" class="edge">
<title>39&#45;&gt;43</title>
<path fill="none" stroke="black" d="M2366.37,-162.51C2387.24,-152.96 2411.05,-142.06 2432.72,-132.13"/>
<polygon fill="black" stroke="black" points="2434.16,-135.33 2441.79,-127.98 2431.24,-128.96 2434.16,-135.33"/>
</g>
<!-- 41 -->
<g id="node42" class="node">
<title>41</title>
<polygon fill="#fae6d8" stroke="black" points="2302.25,-38 2197,-38 2197,0 2302.25,0 2302.25,-38"/>
<text text-anchor="middle" x="2249.62" y="-20.7" font-family="Helvetica,sans-Serif" font-size="14.00">samples = 4</text>
<text text-anchor="middle" x="2249.62" y="-5.7" font-family="Helvetica,sans-Serif" font-size="14.00">value = 110.25</text>
</g>
<!-- 40&#45;&gt;41 -->
<g id="edge41" class="edge">
<title>40&#45;&gt;41</title>
<path fill="none" stroke="black" d="M2290.31,-73.91C2283.99,-65.53 2276.94,-56.19 2270.51,-47.67"/>
<polygon fill="black" stroke="black" points="2273.31,-45.57 2264.49,-39.7 2267.72,-49.79 2273.31,-45.57"/>
</g>
<!-- 42 -->
<g id="node43" class="node">
<title>42</title>
<polygon fill="#f1ba92" stroke="black" points="2433,-38 2320.25,-38 2320.25,0 2433,0 2433,-38"/>
<text text-anchor="middle" x="2376.62" y="-20.7" font-family="Helvetica,sans-Serif" font-size="14.00">samples = 30</text>
<text text-anchor="middle" x="2376.62" y="-5.7" font-family="Helvetica,sans-Serif" font-size="14.00">value = 211.167</text>
</g>
<!-- 40&#45;&gt;42 -->
<g id="edge42" class="edge">
<title>40&#45;&gt;42</title>
<path fill="none" stroke="black" d="M2331.19,-73.91C2338.4,-65.35 2346.46,-55.79 2353.77,-47.12"/>
<polygon fill="black" stroke="black" points="2356.3,-49.55 2360.07,-39.64 2350.95,-45.04 2356.3,-49.55"/>
</g>
<!-- 44 -->
<g id="node45" class="node">
<title>44</title>
<polygon fill="#f7d8c2" stroke="black" points="2548.5,-38 2450.75,-38 2450.75,0 2548.5,0 2548.5,-38"/>
<text text-anchor="middle" x="2499.62" y="-20.7" font-family="Helvetica,sans-Serif" font-size="14.00">samples = 2</text>
<text text-anchor="middle" x="2499.62" y="-5.7" font-family="Helvetica,sans-Serif" font-size="14.00">value = 143.0</text>
</g>
<!-- 43&#45;&gt;44 -->
<g id="edge44" class="edge">
<title>43&#45;&gt;44</title>
<path fill="none" stroke="black" d="M2499.62,-73.91C2499.62,-66.25 2499.62,-57.79 2499.62,-49.88"/>
<polygon fill="black" stroke="black" points="2503.13,-50 2499.63,-40 2496.13,-50 2503.13,-50"/>
</g>
<!-- 45 -->
<g id="node46" class="node">
<title>45</title>
<polygon fill="#eca572" stroke="black" points="2664.5,-38 2566.75,-38 2566.75,0 2664.5,0 2664.5,-38"/>
<text text-anchor="middle" x="2615.62" y="-20.7" font-family="Helvetica,sans-Serif" font-size="14.00">samples = 16</text>
<text text-anchor="middle" x="2615.62" y="-5.7" font-family="Helvetica,sans-Serif" font-size="14.00">value = 257.5</text>
</g>
<!-- 43&#45;&gt;45 -->
<g id="edge45" class="edge">
<title>43&#45;&gt;45</title>
<path fill="none" stroke="black" d="M2537.29,-73.69C2550.81,-64.42 2566.02,-54 2579.41,-44.82"/>
<polygon fill="black" stroke="black" points="2581.28,-47.78 2587.55,-39.24 2577.32,-42.01 2581.28,-47.78"/>
</g>
<!-- 47 -->
<g id="node48" class="node">
<title>47</title>
<polygon fill="#e9965a" stroke="black" points="2980,-216 2867.25,-216 2867.25,-163 2980,-163 2980,-216"/>
<text text-anchor="middle" x="2923.62" y="-198.7" font-family="Helvetica,sans-Serif" font-size="14.00">s4 &lt;= 0.027</text>
<text text-anchor="middle" x="2923.62" y="-183.7" font-family="Helvetica,sans-Serif" font-size="14.00">samples = 17</text>
<text text-anchor="middle" x="2923.62" y="-168.7" font-family="Helvetica,sans-Serif" font-size="14.00">value = 292.471</text>
</g>
<!-- 46&#45;&gt;47 -->
<g id="edge47" class="edge">
<title>46&#45;&gt;47</title>
<path fill="none" stroke="black" d="M2923.62,-251.87C2923.62,-244.24 2923.62,-235.72 2923.62,-227.51"/>
<polygon fill="black" stroke="black" points="2927.13,-227.76 2923.63,-217.76 2920.13,-227.76 2927.13,-227.76"/>
</g>
<!-- 54 -->
<g id="node55" class="node">
<title>54</title>
<polygon fill="#efb388" stroke="black" points="3349.25,-216 3244,-216 3244,-163 3349.25,-163 3349.25,-216"/>
<text text-anchor="middle" x="3296.62" y="-198.7" font-family="Helvetica,sans-Serif" font-size="14.00">bp &lt;= &#45;0.022</text>
<text text-anchor="middle" x="3296.62" y="-183.7" font-family="Helvetica,sans-Serif" font-size="14.00">samples = 8</text>
<text text-anchor="middle" x="3296.62" y="-168.7" font-family="Helvetica,sans-Serif" font-size="14.00">value = 225.75</text>
</g>
<!-- 46&#45;&gt;54 -->
<g id="edge54" class="edge">
<title>46&#45;&gt;54</title>
<path fill="none" stroke="black" d="M2976.67,-265.13C3044.06,-249.41 3160.28,-222.3 3232.55,-205.44"/>
<polygon fill="black" stroke="black" points="3233.34,-208.85 3242.29,-203.17 3231.75,-202.04 3233.34,-208.85"/>
</g>
<!-- 48 -->
<g id="node49" class="node">
<title>48</title>
<polygon fill="#eb9c64" stroke="black" points="2914,-127 2801.25,-127 2801.25,-74 2914,-74 2914,-127"/>
<text text-anchor="middle" x="2857.62" y="-109.7" font-family="Helvetica,sans-Serif" font-size="14.00">sex &lt;= 0.003</text>
<text text-anchor="middle" x="2857.62" y="-94.7" font-family="Helvetica,sans-Serif" font-size="14.00">samples = 11</text>
<text text-anchor="middle" x="2857.62" y="-79.7" font-family="Helvetica,sans-Serif" font-size="14.00">value = 278.182</text>
</g>
<!-- 47&#45;&gt;48 -->
<g id="edge48" class="edge">
<title>47&#45;&gt;48</title>
<path fill="none" stroke="black" d="M2904.18,-162.87C2897.86,-154.53 2890.73,-145.14 2883.99,-136.26"/>
<polygon fill="black" stroke="black" points="2886.91,-134.31 2878.07,-128.46 2881.33,-138.54 2886.91,-134.31"/>
</g>
<!-- 51 -->
<g id="node52" class="node">
<title>51</title>
<polygon fill="#e78a48" stroke="black" points="3045,-127 2932.25,-127 2932.25,-74 3045,-74 3045,-127"/>
<text text-anchor="middle" x="2988.62" y="-109.7" font-family="Helvetica,sans-Serif" font-size="14.00">s5 &lt;= 0.032</text>
<text text-anchor="middle" x="2988.62" y="-94.7" font-family="Helvetica,sans-Serif" font-size="14.00">samples = 6</text>
<text text-anchor="middle" x="2988.62" y="-79.7" font-family="Helvetica,sans-Serif" font-size="14.00">value = 318.667</text>
</g>
<!-- 47&#45;&gt;51 -->
<g id="edge51" class="edge">
<title>47&#45;&gt;51</title>
<path fill="none" stroke="black" d="M2942.78,-162.87C2949,-154.53 2956.02,-145.14 2962.66,-136.26"/>
<polygon fill="black" stroke="black" points="2965.3,-138.57 2968.48,-128.46 2959.69,-134.38 2965.3,-138.57"/>
</g>
<!-- 49 -->
<g id="node50" class="node">
<title>49</title>
<polygon fill="#eca26d" stroke="black" points="2795,-38 2682.25,-38 2682.25,0 2795,0 2795,-38"/>
<text text-anchor="middle" x="2738.62" y="-20.7" font-family="Helvetica,sans-Serif" font-size="14.00">samples = 6</text>
<text text-anchor="middle" x="2738.62" y="-5.7" font-family="Helvetica,sans-Serif" font-size="14.00">value = 264.167</text>
</g>
<!-- 48&#45;&gt;49 -->
<g id="edge49" class="edge">
<title>48&#45;&gt;49</title>
<path fill="none" stroke="black" d="M2818.99,-73.69C2804.98,-64.33 2789.21,-53.8 2775.37,-44.55"/>
<polygon fill="black" stroke="black" points="2777.66,-41.87 2767.41,-39.23 2773.78,-47.69 2777.66,-41.87"/>
</g>
<!-- 50 -->
<g id="node51" class="node">
<title>50</title>
<polygon fill="#e99558" stroke="black" points="2910.5,-38 2812.75,-38 2812.75,0 2910.5,0 2910.5,-38"/>
<text text-anchor="middle" x="2861.62" y="-20.7" font-family="Helvetica,sans-Serif" font-size="14.00">samples = 5</text>
<text text-anchor="middle" x="2861.62" y="-5.7" font-family="Helvetica,sans-Serif" font-size="14.00">value = 295.0</text>
</g>
<!-- 48&#45;&gt;50 -->
<g id="edge50" class="edge">
<title>48&#45;&gt;50</title>
<path fill="none" stroke="black" d="M2858.91,-73.91C2859.3,-66.25 2859.72,-57.79 2860.12,-49.88"/>
<polygon fill="black" stroke="black" points="2863.61,-50.16 2860.62,-40 2856.62,-49.81 2863.61,-50.16"/>
</g>
<!-- 52 -->
<g id="node53" class="node">
<title>52</title>
<polygon fill="#e58139" stroke="black" points="3041,-38 2928.25,-38 2928.25,0 3041,0 3041,-38"/>
<text text-anchor="middle" x="2984.62" y="-20.7" font-family="Helvetica,sans-Serif" font-size="14.00">samples = 3</text>
<text text-anchor="middle" x="2984.62" y="-5.7" font-family="Helvetica,sans-Serif" font-size="14.00">value = 339.667</text>
</g>
<!-- 51&#45;&gt;52 -->
<g id="edge52" class="edge">
<title>51&#45;&gt;52</title>
<path fill="none" stroke="black" d="M2987.34,-73.91C2986.95,-66.25 2986.53,-57.79 2986.13,-49.88"/>
<polygon fill="black" stroke="black" points="2989.63,-49.81 2985.63,-40 2982.64,-50.16 2989.63,-49.81"/>
</g>
<!-- 53 -->
<g id="node54" class="node">
<title>53</title>
<polygon fill="#e99456" stroke="black" points="3172,-38 3059.25,-38 3059.25,0 3172,0 3172,-38"/>
<text text-anchor="middle" x="3115.62" y="-20.7" font-family="Helvetica,sans-Serif" font-size="14.00">samples = 3</text>
<text text-anchor="middle" x="3115.62" y="-5.7" font-family="Helvetica,sans-Serif" font-size="14.00">value = 297.667</text>
</g>
<!-- 51&#45;&gt;53 -->
<g id="edge53" class="edge">
<title>51&#45;&gt;53</title>
<path fill="none" stroke="black" d="M3029.86,-73.69C3044.95,-64.24 3061.96,-53.59 3076.83,-44.28"/>
<polygon fill="black" stroke="black" points="3078.35,-47.46 3084.97,-39.19 3074.64,-41.53 3078.35,-47.46"/>
</g>
<!-- 55 -->
<g id="node56" class="node">
<title>55</title>
<polygon fill="#e9965a" stroke="black" points="3345.5,-127 3247.75,-127 3247.75,-74 3345.5,-74 3345.5,-127"/>
<text text-anchor="middle" x="3296.62" y="-109.7" font-family="Helvetica,sans-Serif" font-size="14.00">s1 &lt;= 0.057</text>
<text text-anchor="middle" x="3296.62" y="-94.7" font-family="Helvetica,sans-Serif" font-size="14.00">samples = 2</text>
<text text-anchor="middle" x="3296.62" y="-79.7" font-family="Helvetica,sans-Serif" font-size="14.00">value = 292.5</text>
</g>
<!-- 54&#45;&gt;55 -->
<g id="edge55" class="edge">
<title>54&#45;&gt;55</title>
<path fill="none" stroke="black" d="M3296.62,-162.87C3296.62,-155.24 3296.62,-146.72 3296.62,-138.51"/>
<polygon fill="black" stroke="black" points="3300.13,-138.76 3296.63,-128.76 3293.13,-138.76 3300.13,-138.76"/>
</g>
<!-- 58 -->
<g id="node59" class="node">
<title>58</title>
<polygon fill="#f1bd98" stroke="black" points="3526.5,-127 3428.75,-127 3428.75,-74 3526.5,-74 3526.5,-127"/>
<text text-anchor="middle" x="3477.62" y="-109.7" font-family="Helvetica,sans-Serif" font-size="14.00">bmi &lt;= 0.096</text>
<text text-anchor="middle" x="3477.62" y="-94.7" font-family="Helvetica,sans-Serif" font-size="14.00">samples = 6</text>
<text text-anchor="middle" x="3477.62" y="-79.7" font-family="Helvetica,sans-Serif" font-size="14.00">value = 203.5</text>
</g>
<!-- 54&#45;&gt;58 -->
<g id="edge58" class="edge">
<title>54&#45;&gt;58</title>
<path fill="none" stroke="black" d="M3349.46,-163.1C3370.99,-152.75 3395.98,-140.74 3418.15,-130.09"/>
<polygon fill="black" stroke="black" points="3419.58,-133.28 3427.08,-125.8 3416.55,-126.97 3419.58,-133.28"/>
</g>
<!-- 56 -->
<g id="node57" class="node">
<title>56</title>
<polygon fill="#eb9c63" stroke="black" points="3287.5,-38 3189.75,-38 3189.75,0 3287.5,0 3287.5,-38"/>
<text text-anchor="middle" x="3238.62" y="-20.7" font-family="Helvetica,sans-Serif" font-size="14.00">samples = 1</text>
<text text-anchor="middle" x="3238.62" y="-5.7" font-family="Helvetica,sans-Serif" font-size="14.00">value = 279.0</text>
</g>
<!-- 55&#45;&gt;56 -->
<g id="edge56" class="edge">
<title>55&#45;&gt;56</title>
<path fill="none" stroke="black" d="M3277.95,-73.91C3271.84,-65.53 3265.03,-56.19 3258.81,-47.67"/>
<polygon fill="black" stroke="black" points="3261.73,-45.73 3253,-39.71 3256.07,-49.85 3261.73,-45.73"/>
</g>
<!-- 57 -->
<g id="node58" class="node">
<title>57</title>
<polygon fill="#e89050" stroke="black" points="3403.5,-38 3305.75,-38 3305.75,0 3403.5,0 3403.5,-38"/>
<text text-anchor="middle" x="3354.62" y="-20.7" font-family="Helvetica,sans-Serif" font-size="14.00">samples = 1</text>
<text text-anchor="middle" x="3354.62" y="-5.7" font-family="Helvetica,sans-Serif" font-size="14.00">value = 306.0</text>
</g>
<!-- 55&#45;&gt;57 -->
<g id="edge57" class="edge">
<title>55&#45;&gt;57</title>
<path fill="none" stroke="black" d="M3315.3,-73.91C3321.41,-65.53 3328.22,-56.19 3334.44,-47.67"/>
<polygon fill="black" stroke="black" points="3337.18,-49.85 3340.25,-39.71 3331.52,-45.73 3337.18,-49.85"/>
</g>
<!-- 59 -->
<g id="node60" class="node">
<title>59</title>
<polygon fill="#f5ccaf" stroke="black" points="3534,-38 3421.25,-38 3421.25,0 3534,0 3534,-38"/>
<text text-anchor="middle" x="3477.62" y="-20.7" font-family="Helvetica,sans-Serif" font-size="14.00">samples = 3</text>
<text text-anchor="middle" x="3477.62" y="-5.7" font-family="Helvetica,sans-Serif" font-size="14.00">value = 169.333</text>
</g>
<!-- 58&#45;&gt;59 -->
<g id="edge59" class="edge">
<title>58&#45;&gt;59</title>
<path fill="none" stroke="black" d="M3477.62,-73.91C3477.62,-66.25 3477.62,-57.79 3477.62,-49.88"/>
<polygon fill="black" stroke="black" points="3481.13,-50 3477.63,-40 3474.13,-50 3481.13,-50"/>
</g>
<!-- 60 -->
<g id="node61" class="node">
<title>60</title>
<polygon fill="#eeae80" stroke="black" points="3665,-38 3552.25,-38 3552.25,0 3665,0 3665,-38"/>
<text text-anchor="middle" x="3608.62" y="-20.7" font-family="Helvetica,sans-Serif" font-size="14.00">samples = 3</text>
<text text-anchor="middle" x="3608.62" y="-5.7" font-family="Helvetica,sans-Serif" font-size="14.00">value = 237.667</text>
</g>
<!-- 58&#45;&gt;60 -->
<g id="edge60" class="edge">
<title>58&#45;&gt;60</title>
<path fill="none" stroke="black" d="M3520.16,-73.69C3535.72,-64.24 3553.27,-53.59 3568.61,-44.28"/>
<polygon fill="black" stroke="black" points="3570.3,-47.35 3577.03,-39.17 3566.67,-41.37 3570.3,-47.35"/>
</g>
</g>
</svg>
