<?xml version="1.0" encoding="UTF-8" standalone="no"?>
<!DOCTYPE svg PUBLIC "-//W3C//DTD SVG 1.1//EN"
 "http://www.w3.org/Graphics/SVG/1.1/DTD/svg11.dtd">
<!-- Generated by graphviz version 10.0.1 (20240210.2158)
 -->
<!-- Title: Tree Pages: 1 -->
<svg width="1036pt" height="373pt"
 viewBox="0.00 0.00 1036.38 373.00" xmlns="http://www.w3.org/2000/svg" xmlns:xlink="http://www.w3.org/1999/xlink">
<g id="graph0" class="graph" transform="scale(1 1) rotate(0) translate(4 369)">
<title>Tree</title>
<polygon fill="white" stroke="none" points="-4,4 -4,-369 1032.38,-369 1032.38,4 -4,4"/>
<!-- 0 -->
<g id="node1" class="node">
<title>0</title>
<polygon fill="#aed7f4" stroke="black" points="602.5,-365 400.5,-365 400.5,-297 602.5,-297 602.5,-365"/>
<text text-anchor="middle" x="501.5" y="-347.7" font-family="Helvetica,sans-Serif" font-size="14.00">mean concave points &lt;= 0.051</text>
<text text-anchor="middle" x="501.5" y="-332.7" font-family="Helvetica,sans-Serif" font-size="14.00">samples = 426</text>
<text text-anchor="middle" x="501.5" y="-317.7" font-family="Helvetica,sans-Serif" font-size="14.00">value = [158, 268]</text>
<text text-anchor="middle" x="501.5" y="-302.7" font-family="Helvetica,sans-Serif" font-size="14.00">class = benign</text>
</g>
<!-- 1 -->
<g id="node2" class="node">
<title>1</title>
<polygon fill="#46a3e7" stroke="black" points="483.75,-261 337.25,-261 337.25,-193 483.75,-193 483.75,-261"/>
<text text-anchor="middle" x="410.5" y="-243.7" font-family="Helvetica,sans-Serif" font-size="14.00">worst radius &lt;= 16.83</text>
<text text-anchor="middle" x="410.5" y="-228.7" font-family="Helvetica,sans-Serif" font-size="14.00">samples = 267</text>
<text text-anchor="middle" x="410.5" y="-213.7" font-family="Helvetica,sans-Serif" font-size="14.00">value = [16, 251]</text>
<text text-anchor="middle" x="410.5" y="-198.7" font-family="Helvetica,sans-Serif" font-size="14.00">class = benign</text>
</g>
<!-- 0&#45;&gt;1 -->
<g id="edge1" class="edge">
<title>0&#45;&gt;1</title>
<path fill="none" stroke="black" d="M471.7,-296.6C464.08,-288.06 455.79,-278.77 447.85,-269.86"/>
<polygon fill="black" stroke="black" points="450.64,-267.73 441.37,-262.6 445.42,-272.4 450.64,-267.73"/>
<text text-anchor="middle" x="438.94" y="-280.63" font-family="Helvetica,sans-Serif" font-size="14.00">True</text>
</g>
<!-- 8 -->
<g id="node9" class="node">
<title>8</title>
<polygon fill="#e89051" stroke="black" points="692.75,-261 534.25,-261 534.25,-193 692.75,-193 692.75,-261"/>
<text text-anchor="middle" x="613.5" y="-243.7" font-family="Helvetica,sans-Serif" font-size="14.00">worst texture &lt;= 20.405</text>
<text text-anchor="middle" x="613.5" y="-228.7" font-family="Helvetica,sans-Serif" font-size="14.00">samples = 159</text>
<text text-anchor="middle" x="613.5" y="-213.7" font-family="Helvetica,sans-Serif" font-size="14.00">value = [142, 17]</text>
<text text-anchor="middle" x="613.5" y="-198.7" font-family="Helvetica,sans-Serif" font-size="14.00">class = malignant</text>
</g>
<!-- 0&#45;&gt;8 -->
<g id="edge8" class="edge">
<title>0&#45;&gt;8</title>
<path fill="none" stroke="black" d="M538.17,-296.6C547.84,-287.8 558.39,-278.19 568.44,-269.03"/>
<polygon fill="black" stroke="black" points="570.59,-271.81 575.63,-262.49 565.88,-266.64 570.59,-271.81"/>
<text text-anchor="middle" x="575.58" y="-280.65" font-family="Helvetica,sans-Serif" font-size="14.00">False</text>
</g>
<!-- 2 -->
<g id="node3" class="node">
<title>2</title>
<polygon fill="#3d9fe6" stroke="black" points="258.88,-157 116.12,-157 116.12,-89 258.88,-89 258.88,-157"/>
<text text-anchor="middle" x="187.5" y="-139.7" font-family="Helvetica,sans-Serif" font-size="14.00">radius error &lt;= 0.626</text>
<text text-anchor="middle" x="187.5" y="-124.7" font-family="Helvetica,sans-Serif" font-size="14.00">samples = 249</text>
<text text-anchor="middle" x="187.5" y="-109.7" font-family="Helvetica,sans-Serif" font-size="14.00">value = [5, 244]</text>
<text text-anchor="middle" x="187.5" y="-94.7" font-family="Helvetica,sans-Serif" font-size="14.00">class = benign</text>
</g>
<!-- 1&#45;&gt;2 -->
<g id="edge2" class="edge">
<title>1&#45;&gt;2</title>
<path fill="none" stroke="black" d="M337.48,-192.6C315.77,-182.67 291.84,-171.72 269.59,-161.55"/>
<polygon fill="black" stroke="black" points="271.09,-158.38 260.54,-157.41 268.18,-164.75 271.09,-158.38"/>
</g>
<!-- 5 -->
<g id="node6" class="node">
<title>5</title>
<polygon fill="#f6d1b7" stroke="black" points="487.12,-157 333.88,-157 333.88,-89 487.12,-89 487.12,-157"/>
<text text-anchor="middle" x="410.5" y="-139.7" font-family="Helvetica,sans-Serif" font-size="14.00">mean texture &lt;= 16.19</text>
<text text-anchor="middle" x="410.5" y="-124.7" font-family="Helvetica,sans-Serif" font-size="14.00">samples = 18</text>
<text text-anchor="middle" x="410.5" y="-109.7" font-family="Helvetica,sans-Serif" font-size="14.00">value = [11, 7]</text>
<text text-anchor="middle" x="410.5" y="-94.7" font-family="Helvetica,sans-Serif" font-size="14.00">class = malignant</text>
</g>
<!-- 1&#45;&gt;5 -->
<g id="edge5" class="edge">
<title>1&#45;&gt;5</title>
<path fill="none" stroke="black" d="M410.5,-192.6C410.5,-185.03 410.5,-176.87 410.5,-168.9"/>
<polygon fill="black" stroke="black" points="414,-168.99 410.5,-158.99 407,-168.99 414,-168.99"/>
</g>
<!-- 3 -->
<g id="node4" class="node">
<title>3</title>
<polygon fill="#3b9ee5" stroke="black" points="109,-53 0,-53 0,0 109,0 109,-53"/>
<text text-anchor="middle" x="54.5" y="-35.7" font-family="Helvetica,sans-Serif" font-size="14.00">samples = 246</text>
<text text-anchor="middle" x="54.5" y="-20.7" font-family="Helvetica,sans-Serif" font-size="14.00">value = [3, 243]</text>
<text text-anchor="middle" x="54.5" y="-5.7" font-family="Helvetica,sans-Serif" font-size="14.00">class = benign</text>
</g>
<!-- 2&#45;&gt;3 -->
<g id="edge3" class="edge">
<title>2&#45;&gt;3</title>
<path fill="none" stroke="black" d="M140.61,-88.68C127.49,-79.36 113.25,-69.24 100.2,-59.97"/>
<polygon fill="black" stroke="black" points="102.36,-57.21 92.18,-54.27 98.3,-62.92 102.36,-57.21"/>
</g>
<!-- 4 -->
<g id="node5" class="node">
<title>4</title>
<polygon fill="#f2c09c" stroke="black" points="248.38,-53 126.62,-53 126.62,0 248.38,0 248.38,-53"/>
<text text-anchor="middle" x="187.5" y="-35.7" font-family="Helvetica,sans-Serif" font-size="14.00">samples = 3</text>
<text text-anchor="middle" x="187.5" y="-20.7" font-family="Helvetica,sans-Serif" font-size="14.00">value = [2, 1]</text>
<text text-anchor="middle" x="187.5" y="-5.7" font-family="Helvetica,sans-Serif" font-size="14.00">class = malignant</text>
</g>
<!-- 2&#45;&gt;4 -->
<g id="edge4" class="edge">
<title>2&#45;&gt;4</title>
<path fill="none" stroke="black" d="M187.5,-88.68C187.5,-80.99 187.5,-72.76 187.5,-64.9"/>
<polygon fill="black" stroke="black" points="191,-64.91 187.5,-54.91 184,-64.91 191,-64.91"/>
</g>
<!-- 6 -->
<g id="node7" class="node">
<title>6</title>
<polygon fill="#399de5" stroke="black" points="369,-53 266,-53 266,0 369,0 369,-53"/>
<text text-anchor="middle" x="317.5" y="-35.7" font-family="Helvetica,sans-Serif" font-size="14.00">samples = 5</text>
<text text-anchor="middle" x="317.5" y="-20.7" font-family="Helvetica,sans-Serif" font-size="14.00">value = [0, 5]</text>
<text text-anchor="middle" x="317.5" y="-5.7" font-family="Helvetica,sans-Serif" font-size="14.00">class = benign</text>
</g>
<!-- 5&#45;&gt;6 -->
<g id="edge6" class="edge">
<title>5&#45;&gt;6</title>
<path fill="none" stroke="black" d="M377.71,-88.68C368.98,-79.81 359.55,-70.23 350.79,-61.33"/>
<polygon fill="black" stroke="black" points="353.55,-59.14 344.04,-54.47 348.56,-64.06 353.55,-59.14"/>
</g>
<!-- 7 -->
<g id="node8" class="node">
<title>7</title>
<polygon fill="#ea985d" stroke="black" points="508.38,-53 386.62,-53 386.62,0 508.38,0 508.38,-53"/>
<text text-anchor="middle" x="447.5" y="-35.7" font-family="Helvetica,sans-Serif" font-size="14.00">samples = 13</text>
<text text-anchor="middle" x="447.5" y="-20.7" font-family="Helvetica,sans-Serif" font-size="14.00">value = [11, 2]</text>
<text text-anchor="middle" x="447.5" y="-5.7" font-family="Helvetica,sans-Serif" font-size="14.00">class = malignant</text>
</g>
<!-- 5&#45;&gt;7 -->
<g id="edge7" class="edge">
<title>5&#45;&gt;7</title>
<path fill="none" stroke="black" d="M423.54,-88.68C426.66,-80.72 430.01,-72.17 433.18,-64.07"/>
<polygon fill="black" stroke="black" points="436.42,-65.39 436.81,-54.8 429.9,-62.84 436.42,-65.39"/>
</g>
<!-- 9 -->
<g id="node10" class="node">
<title>9</title>
<polygon fill="#88c4ef" stroke="black" points="701,-157 526,-157 526,-89 701,-89 701,-157"/>
<text text-anchor="middle" x="613.5" y="-139.7" font-family="Helvetica,sans-Serif" font-size="14.00">worst perimeter &lt;= 119.65</text>
<text text-anchor="middle" x="613.5" y="-124.7" font-family="Helvetica,sans-Serif" font-size="14.00">samples = 14</text>
<text text-anchor="middle" x="613.5" y="-109.7" font-family="Helvetica,sans-Serif" font-size="14.00">value = [4, 10]</text>
<text text-anchor="middle" x="613.5" y="-94.7" font-family="Helvetica,sans-Serif" font-size="14.00">class = benign</text>
</g>
<!-- 8&#45;&gt;9 -->
<g id="edge9" class="edge">
<title>8&#45;&gt;9</title>
<path fill="none" stroke="black" d="M613.5,-192.6C613.5,-185.03 613.5,-176.87 613.5,-168.9"/>
<polygon fill="black" stroke="black" points="617,-168.99 613.5,-158.99 610,-168.99 617,-168.99"/>
</g>
<!-- 12 -->
<g id="node13" class="node">
<title>12</title>
<polygon fill="#e68743" stroke="black" points="909.62,-157 765.38,-157 765.38,-89 909.62,-89 909.62,-157"/>
<text text-anchor="middle" x="837.5" y="-139.7" font-family="Helvetica,sans-Serif" font-size="14.00">worst area &lt;= 718.65</text>
<text text-anchor="middle" x="837.5" y="-124.7" font-family="Helvetica,sans-Serif" font-size="14.00">samples = 145</text>
<text text-anchor="middle" x="837.5" y="-109.7" font-family="Helvetica,sans-Serif" font-size="14.00">value = [138, 7]</text>
<text text-anchor="middle" x="837.5" y="-94.7" font-family="Helvetica,sans-Serif" font-size="14.00">class = malignant</text>
</g>
<!-- 8&#45;&gt;12 -->
<g id="edge12" class="edge">
<title>8&#45;&gt;12</title>
<path fill="none" stroke="black" d="M686.85,-192.6C708.55,-182.72 732.45,-171.83 754.7,-161.7"/>
<polygon fill="black" stroke="black" points="756.11,-164.91 763.76,-157.58 753.21,-158.54 756.11,-164.91"/>
</g>
<!-- 10 -->
<g id="node11" class="node">
<title>10</title>
<polygon fill="#399de5" stroke="black" points="629,-53 526,-53 526,0 629,0 629,-53"/>
<text text-anchor="middle" x="577.5" y="-35.7" font-family="Helvetica,sans-Serif" font-size="14.00">samples = 10</text>
<text text-anchor="middle" x="577.5" y="-20.7" font-family="Helvetica,sans-Serif" font-size="14.00">value = [0, 10]</text>
<text text-anchor="middle" x="577.5" y="-5.7" font-family="Helvetica,sans-Serif" font-size="14.00">class = benign</text>
</g>
<!-- 9&#45;&gt;10 -->
<g id="edge10" class="edge">
<title>9&#45;&gt;10</title>
<path fill="none" stroke="black" d="M600.81,-88.68C597.77,-80.72 594.52,-72.17 591.43,-64.07"/>
<polygon fill="black" stroke="black" points="594.73,-62.91 587.9,-54.81 588.19,-65.4 594.73,-62.91"/>
</g>
<!-- 11 -->
<g id="node12" class="node">
<title>11</title>
<polygon fill="#e58139" stroke="black" points="768.38,-53 646.62,-53 646.62,0 768.38,0 768.38,-53"/>
<text text-anchor="middle" x="707.5" y="-35.7" font-family="Helvetica,sans-Serif" font-size="14.00">samples = 4</text>
<text text-anchor="middle" x="707.5" y="-20.7" font-family="Helvetica,sans-Serif" font-size="14.00">value = [4, 0]</text>
<text text-anchor="middle" x="707.5" y="-5.7" font-family="Helvetica,sans-Serif" font-size="14.00">class = malignant</text>
</g>
<!-- 9&#45;&gt;11 -->
<g id="edge11" class="edge">
<title>9&#45;&gt;11</title>
<path fill="none" stroke="black" d="M646.64,-88.68C655.46,-79.81 665,-70.23 673.85,-61.33"/>
<polygon fill="black" stroke="black" points="676.1,-64.03 680.68,-54.47 671.14,-59.09 676.1,-64.03"/>
</g>
<!-- 13 -->
<g id="node14" class="node">
<title>13</title>
<polygon fill="#e3f1fb" stroke="black" points="889,-53 786,-53 786,0 889,0 889,-53"/>
<text text-anchor="middle" x="837.5" y="-35.7" font-family="Helvetica,sans-Serif" font-size="14.00">samples = 13</text>
<text text-anchor="middle" x="837.5" y="-20.7" font-family="Helvetica,sans-Serif" font-size="14.00">value = [6, 7]</text>
<text text-anchor="middle" x="837.5" y="-5.7" font-family="Helvetica,sans-Serif" font-size="14.00">class = benign</text>
</g>
<!-- 12&#45;&gt;13 -->
<g id="edge13" class="edge">
<title>12&#45;&gt;13</title>
<path fill="none" stroke="black" d="M837.5,-88.68C837.5,-80.99 837.5,-72.76 837.5,-64.9"/>
<polygon fill="black" stroke="black" points="841,-64.91 837.5,-54.91 834,-64.91 841,-64.91"/>
</g>
<!-- 14 -->
<g id="node15" class="node">
<title>14</title>
<polygon fill="#e58139" stroke="black" points="1028.38,-53 906.62,-53 906.62,0 1028.38,0 1028.38,-53"/>
<text text-anchor="middle" x="967.5" y="-35.7" font-family="Helvetica,sans-Serif" font-size="14.00">samples = 132</text>
<text text-anchor="middle" x="967.5" y="-20.7" font-family="Helvetica,sans-Serif" font-size="14.00">value = [132, 0]</text>
<text text-anchor="middle" x="967.5" y="-5.7" font-family="Helvetica,sans-Serif" font-size="14.00">class = malignant</text>
</g>
<!-- 12&#45;&gt;14 -->
<g id="edge14" class="edge">
<title>12&#45;&gt;14</title>
<path fill="none" stroke="black" d="M883.33,-88.68C896.16,-79.36 910.07,-69.24 922.83,-59.97"/>
<polygon fill="black" stroke="black" points="924.62,-62.99 930.65,-54.28 920.51,-57.33 924.62,-62.99"/>
</g>
</g>
</svg>
